<svg width="30" height="30" viewBox="0 0 30 30" fill="none" xmlns="http://www.w3.org/2000/svg">
<path d="M29.9959 13.1728C29.6037 9.83951 28.0753 6.69133 25.6922 4.30816C23.3092 1.92498 20.161 0.396386 16.8277 0.00398396C16.6614 -0.0154691 16.495 0.0369136 16.3699 0.148066C16.2449 0.259276 16.1733 0.418651 16.1733 0.585936V5.68862C16.1733 6.01218 16.4357 6.27456 16.7593 6.27456C17.0828 6.27456 17.3452 6.01218 17.3452 5.68862V1.26035C23.2087 2.22984 27.7705 6.79182 28.7396 12.6554H17.3452V9.73106C17.3452 9.4075 17.0828 9.14512 16.7593 9.14512C16.4357 9.14512 16.1733 9.4075 16.1733 9.73106V13.2413C16.1733 13.5649 16.4357 13.8273 16.7593 13.8273H29.4141C29.5814 13.8273 29.7408 13.7558 29.8518 13.6307C29.963 13.5057 30.0155 13.3391 29.9959 13.1728Z" fill="white"/>
<path d="M16.7593 7.09158C16.4357 7.09158 16.1733 7.35397 16.1733 7.67752V7.69299C16.1733 8.01654 16.4357 8.27892 16.7593 8.27892C17.0829 8.27892 17.3452 8.01654 17.3452 7.69299V7.67752C17.3452 7.35397 17.0828 7.09158 16.7593 7.09158Z" fill="white"/>
<path d="M13.8031 25.944C11.4382 25.8868 9.19959 25.0803 7.32922 23.6117C7.07457 23.4117 6.70631 23.4561 6.50651 23.7107C6.30658 23.9652 6.35094 24.3335 6.60547 24.5334C8.67611 26.1592 11.1552 27.0521 13.7748 27.1154C13.7796 27.1156 13.7844 27.1156 13.7892 27.1156C14.1062 27.1156 14.3669 26.8625 14.3747 26.5439C14.3825 26.2204 14.1265 25.9518 13.8031 25.944Z" fill="white"/>
<path d="M16.046 26.3793C16.0076 26.058 15.7158 25.8287 15.3948 25.8669L15.3823 25.8684C15.061 25.9067 14.8316 26.1983 14.8699 26.5196C14.9054 26.8174 15.1584 27.0362 15.451 27.0362C15.4742 27.0362 15.4976 27.0347 15.5211 27.032L15.5336 27.0305C15.8549 26.9922 16.0843 26.7006 16.046 26.3793Z" fill="white"/>
<path d="M27.7734 15.2343C27.763 15.2343 27.7527 15.2346 27.7425 15.2352H14.7656V2.22656C14.7656 1.90301 14.5032 1.64062 14.1797 1.64062C10.3921 1.64062 6.83132 3.1156 4.15312 5.79374C1.47498 8.47194 0 12.0327 0 15.8203C0 19.6078 1.47498 23.1686 4.15312 25.8468C6.83132 28.525 10.3921 29.9999 14.1797 29.9999C17.9672 29.9999 21.528 28.525 24.2062 25.8468C26.8843 23.1686 28.3593 19.6078 28.3593 15.8203C28.3593 15.4967 28.0969 15.2343 27.7734 15.2343ZM14.1797 28.8281C7.00715 28.8281 1.17187 22.9928 1.17187 15.8203C1.17187 8.8443 6.69233 3.1333 13.5937 2.82556V15.8211C13.5937 16.0163 13.6895 16.1887 13.8362 16.2951C13.8362 16.2953 13.8361 16.2955 13.836 16.2957L24.3553 23.9138C21.9701 26.9065 18.2953 28.8281 14.1797 28.8281ZM25.0439 22.9655L15.9877 16.407H27.1744C27.0667 18.8215 26.297 21.0664 25.0439 22.9655Z" fill="white"/>
</svg>
