<svg width="100" height="100" viewBox="0 0 100 100" fill="none" xmlns="http://www.w3.org/2000/svg">
<path d="M50 11.5891L12.5 37.0469V95.3125H87.5V37.0469L50 11.5891Z" fill="#E8EDF2"/>
<path d="M26.5625 64.0625H43.75V95.3125H26.5625V64.0625Z" fill="white"/>
<path d="M60.9375 78.125H82.8125V84.375H60.9375V78.125Z" fill="#0E2743"/>
<path d="M56.25 95.3125V73.4375L59.375 68.75L62.5 73.4375V95.3125H56.25Z" fill="#1B3C64"/>
<path d="M68.75 95.3125V73.4375L71.875 68.75L75 73.4375V95.3125H68.75Z" fill="#1B3C64"/>
<path d="M81.25 95.3125V73.4375L84.375 68.75L87.5 73.4375V95.3125H81.25Z" fill="#1B3C64"/>
<path d="M54.6875 50H45.3125C42.7234 50 40.625 47.9016 40.625 45.3125V35.9375C40.625 33.3484 42.7234 31.25 45.3125 31.25H54.6875C57.2766 31.25 59.375 33.3484 59.375 35.9375V45.3125C59.375 47.9016 57.2766 50 54.6875 50Z" fill="#1B3C64"/>
<path d="M59.375 39.0625H51.5625V31.25H48.4375V39.0625H40.625V42.1875H48.4375V50H51.5625V42.1875H59.375V39.0625Z" fill="#E8EDF2"/>
<path d="M35.9375 78.125H39.0625V81.25H35.9375V78.125Z" fill="#1B3C64"/>
<path d="M10.9375 82.8125H14.0625V95.3125H10.9375V82.8125Z" fill="#1B3C64"/>
<path d="M20.3125 76.5625C20.3125 82.1719 16.8141 85.9375 12.5 85.9375C8.18594 85.9375 4.6875 82.1719 4.6875 76.5625C4.6875 72.9 8.01719 64.0312 10.3297 58.3141C11.1203 56.3594 13.8813 56.3594 14.6719 58.3141C16.9828 64.0312 20.3125 72.9 20.3125 76.5625Z" fill="#0E2743"/>
<path d="M3.125 93.75H96.875V96.875H3.125V93.75Z" fill="#1B3C64"/>
<path d="M91.5 41.05L49.5047 12.5531L7.50938 41.05L4 35.8781L49.5047 5L95.0094 35.8781L91.5 41.05Z" fill="#1B3C64"/>
</svg>
