<svg width="32" height="32" viewBox="0 0 32 32" fill="none" xmlns="http://www.w3.org/2000/svg">
<path d="M31.7577 14.5524L25.15 8.80177C24.9604 8.63677 24.6729 8.6567 24.5078 8.84633C24.3427 9.03595 24.3626 9.32352 24.5523 9.48858L30.7411 14.8746H27.9353L16.458 4.88602C16.1969 4.65884 15.8032 4.65878 15.5421 4.88602L4.0648 14.8746H1.25893L5.53174 11.1559C5.5318 11.1559 5.53186 11.1558 5.53192 11.1558L9.56235 7.64814C9.56248 7.64808 9.56254 7.64796 9.5626 7.64789L16 2.04553L22.9108 8.05996C23.1005 8.22502 23.388 8.20508 23.5531 8.01539C23.7181 7.82577 23.6982 7.53821 23.5085 7.37314L16.4579 1.23709C16.1968 1.00991 15.8032 1.00985 15.542 1.23709L10.5549 5.5774V4.28909C10.5549 3.89634 10.2353 3.57678 9.84254 3.57678H4.49311C4.10036 3.57678 3.7808 3.89634 3.7808 4.28909V5.62909C3.7808 6.02184 4.10036 6.3414 4.49311 6.3414H4.77786V10.6051L0.242246 14.5524C0.0189336 14.7468 -0.0582538 15.0514 0.0454335 15.3287C0.149183 15.6059 0.407495 15.7851 0.703495 15.7851H3.77868V23.8733C3.77868 24.1247 3.98249 24.3285 4.23393 24.3285C4.48536 24.3285 4.68917 24.1247 4.68917 23.8733V15.5382L16 5.69446L27.3109 15.5383V29.5233C27.3109 29.6549 27.2038 29.762 27.0721 29.762H20.2903V18.2677C20.2903 17.6628 19.7982 17.1707 19.1933 17.1707H13.373C12.7681 17.1707 12.276 17.6628 12.276 18.2677V29.7619H4.92792C4.7963 29.7619 4.68917 29.6548 4.68917 29.5232V26.066C4.68917 25.8145 4.48536 25.6107 4.23393 25.6107C3.98249 25.6107 3.77868 25.8145 3.77868 26.066V29.5232C3.77868 30.1568 4.29418 30.6723 4.92786 30.6723H27.0721C27.7058 30.6723 28.2213 30.1568 28.2213 29.5232V15.785H31.2964C31.5924 15.785 31.8507 15.6059 31.9545 15.3286C32.0583 15.0514 31.9811 14.7468 31.7577 14.5524ZM8.80829 7.09746L5.6883 9.81276V6.3414H8.80829V7.09746ZM4.69124 5.43096V4.48721H9.64448V5.43096H9.26354H5.23311H4.69124ZM19.3799 29.762H13.1864V18.2677C13.1864 18.1649 13.2702 18.0812 13.373 18.0812H19.1933C19.2961 18.0812 19.3799 18.1649 19.3799 18.2677V29.762V29.762Z" fill="white"/>
</svg>
