<?xml version="1.0" encoding="UTF-8"?>
<!DOCTYPE svg PUBLIC "-//W3C//DTD SVG 1.1//EN" "http://www.w3.org/Graphics/SVG/1.1/DTD/svg11.dtd">
<!-- Creator: CorelDRAW 2020 (64 Bit) -->
<svg xmlns="http://www.w3.org/2000/svg" xml:space="preserve" width="162.56mm" height="91.44mm" version="1.1" style="shape-rendering:geometricPrecision; text-rendering:geometricPrecision; image-rendering:optimizeQuality; fill-rule:evenodd; clip-rule:evenodd"
viewBox="0 0 16256 9144"
 xmlns:xlink="http://www.w3.org/1999/xlink"
 xmlns:xodm="http://www.corel.com/coreldraw/odm/2003">
 <defs>
  <style type="text/css">
   <![CDATA[
    .fil0 {fill:#B2CEFF;fill-rule:nonzero}
    .fil1 {fill:#FFECB2;fill-rule:nonzero}
   ]]>
  </style>
 </defs>
 <g id="Camada_x0020_1">
  <metadata id="CorelCorpID_0Corel-Layer"/>
  <g id="_2347471043904">
   <path class="fil0" d="M6570.51 4733.98l1220.58 1035.32 380.15 -74.39 7.28 -387.28 380.11 -74.39 7.26 -387.27 380.14 -74.4 7.25 -387.28 380.14 -74.39 7.25 -387.29 380.13 -74.37 7.25 -387.29 380.15 -74.39 7.24 -387.28 380.12 -74.39 7.26 -387.27 380.13 -74.4 7.27 -387.27 -923.21 -774.65 -3396.5 3432.68zm3610.63 -2495.61l0 0c-74.85,89.2 -207.86,100.83 -297.05,25.97 -89.22,-74.84 -100.85,-207.84 -26,-297.05 74.86,-89.22 207.86,-100.85 297.07,-26 89.22,74.85 100.85,207.86 25.98,297.08z"/>
   <path class="fil1" d="M6304.96 4778.03l-1273.3 1346.39c-47.17,49.85 -42.73,126.74 9.85,170.87l199.02 167c52.58,44.12 147.13,57.9 210.1,30.64l180.75 -78.25c62.99,-27.27 162.6,-20.58 221.34,14.9l617.32 372.78c58.76,35.47 103.78,120.57 100.08,189.1l-13.56 249.38c-3.7,68.53 36.28,160.7 88.85,204.81l145.58 122.17c52.58,44.12 129.44,35.41 170.83,-19.36l1026.04 -1358.23c41.36,-54.76 32.2,-135.66 -20.38,-179.78l-1481.19 -1242.86c-52.58,-44.12 -134.15,-39.42 -181.33,10.44zm839.58 1198.92l0 0c128.54,107.85 145.31,299.5 37.45,428.04 -107.86,128.54 -299.51,145.32 -428.05,37.46l-511.35 -429.07c-128.54,-107.86 -145.32,-299.51 -37.45,-428.05 107.86,-128.55 299.5,-145.32 428.05,-37.46l511.35 429.08z"/>
  </g>
 </g>
</svg>
