<svg width="60" height="60" viewBox="0 0 60 60" fill="none" xmlns="http://www.w3.org/2000/svg">
<g clip-path="url(#clip0)">
<path d="M23.4088 51.635C17.6217 49.8355 13.7333 44.5507 13.7333 38.4843C13.7333 35.5191 14.6616 32.694 16.418 30.3145C16.458 30.2602 16.4942 30.2009 16.5244 30.1405C16.8146 29.5602 16.5789 28.8554 15.9985 28.5652C15.4732 28.3022 14.8449 28.4711 14.5152 28.9357C12.4666 31.7187 11.3837 35.0202 11.3837 38.4843C11.3837 41.9923 12.4914 45.3277 14.5869 48.1296C16.6124 50.8378 19.4976 52.8797 22.7112 53.8788C22.8274 53.915 22.9449 53.9321 23.0604 53.9321C23.5612 53.9321 24.0254 53.6092 24.1819 53.1057C24.3746 52.4861 24.0285 51.8277 23.4088 51.635V51.635Z" fill="#1B3C64"/>
<path d="M53.5251 27.4548C53.5251 25.2184 52.8281 23.0877 51.5092 21.2909L44.072 10.2503C43.8536 9.9261 43.4884 9.73177 43.0975 9.73177C42.7066 9.73177 42.3415 9.9261 42.123 10.2503L38.9891 14.9025L29.2993 0.518481C29.081 0.194328 28.7157 0 28.325 0C27.9342 0 27.5689 0.194328 27.3506 0.518481L10.7169 25.2104C7.9416 28.982 6.47498 33.4555 6.47498 38.15C6.47498 50.1981 16.2769 60 28.325 60C40.373 60 50.175 50.1981 50.175 38.15C50.175 37.1882 50.1107 36.2247 49.9858 35.2762C52.1544 33.364 53.5251 30.5667 53.5251 27.4548V27.4548ZM43.0975 13.0096L49.56 22.6031C49.5729 22.6231 49.5866 22.6427 49.6008 22.662C50.6308 24.0569 51.1753 25.7142 51.1753 27.4547C51.1753 31.9087 47.5517 35.5323 43.0975 35.5323C38.6435 35.5323 35.0199 31.9087 35.0199 27.4547C35.0199 25.7142 35.5643 24.0569 36.5943 22.662C36.608 22.6435 36.621 22.6247 36.6336 22.6053L39.9612 17.6655C39.9674 17.6564 39.9737 17.6475 39.9796 17.6382L43.0975 13.0096ZM47.8251 38.15C47.8251 48.9025 39.0772 57.6502 28.3248 57.6502C17.5723 57.6502 8.82465 48.9025 8.82465 38.15C8.82465 33.9505 10.1394 29.9494 12.6268 26.5795C12.6411 26.5604 12.6548 26.5403 12.6681 26.5197L28.325 3.27772L37.5727 17.0054L34.6858 21.291C33.367 23.0877 32.6701 25.2185 32.6701 27.4548C32.6701 33.2045 37.3478 37.8823 43.0975 37.8823C44.7788 37.8823 46.3681 37.4817 47.7758 36.772C47.8079 37.2302 47.8251 37.6903 47.8251 38.15Z" fill="#1B3C64"/>
<path d="M38.9549 27.1683C38.9549 26.599 39.0708 26.0497 39.2995 25.5354C39.5631 24.9424 39.2961 24.2481 38.7032 23.9845C38.1103 23.7213 37.416 23.9878 37.1524 24.5808C36.7892 25.3976 36.6051 26.2681 36.6051 27.1683C36.6051 29.3006 37.6644 31.2826 39.4386 32.4698C39.6393 32.604 39.8663 32.6682 40.0909 32.6682C40.4699 32.6682 40.8419 32.4851 41.0684 32.1467C41.4292 31.6073 41.2846 30.8775 40.7453 30.5167C39.6242 29.7666 38.9549 28.5148 38.9549 27.1683V27.1683Z" fill="#1B3C64"/>
<path d="M27.7678 53.2627C27.4802 52.5068 26.4071 52.2912 25.8516 52.882C25.1902 53.5229 25.5462 54.6997 26.4531 54.8641C27.3523 55.0611 28.136 54.1067 27.7678 53.2627Z" fill="#1B3C64"/>
<path d="M42.4785 33.5408C43.2361 34.0655 44.321 33.4853 44.3055 32.5644C44.3225 31.6434 43.2355 31.0621 42.4785 31.5869C41.7924 32.0169 41.7897 33.1122 42.4785 33.5408Z" fill="#1B3C64"/>
</g>
<defs>
<clipPath id="clip0">
<rect width="60" height="60" fill="white"/>
</clipPath>
</defs>
</svg>
